<svg xmlns="http://www.w3.org/2000/svg" fill="none" viewBox="0 0 20 20">
  <path d="M19.575 10.225a11.6 11.6 0 00-.158-1.892H10v3.759h5.392c-.242 1.233-.95 2.275-2 2.983v2.5h3.216c1.884-1.742 2.967-4.308 2.967-7.35z" fill="#4285F4"/>
  <path d="M10 20c2.7 0 4.958-.9 6.608-2.425l-3.216-2.5c-.9.6-2.042.967-3.392.967-2.608 0-4.817-1.759-5.608-4.134H1.075v2.575C2.717 17.75 6.092 20 10 20z" fill="#34A853"/>
  <path d="M4.392 11.908A5.802 5.802 0 014.075 10c0-.667.117-1.308.317-1.908V5.517H1.075a9.884 9.884 0 000 8.966l3.317-2.575z" fill="#FBBC05"/>
  <path d="M10 3.958c1.475 0 2.792.509 3.833 1.5l2.85-2.85C14.958.992 12.7 0 10 0 6.092 0 2.717 2.25 1.075 5.517l3.317 2.575c.791-2.375 3-4.134 5.608-4.134z" fill="#EA4335"/>
</svg>
