<svg xmlns="http://www.w3.org/2000/svg" fill="none" viewBox="0 0 24 24">
  <mask id="DfugGhYIHPa" fill="#fff">
    <path fill-rule="evenodd" clip-rule="evenodd" d="M21.452 17.63A10.949 10.949 0 0023 12c0-6.075-4.925-11-11-11S1 5.925 1 12s4.925 11 11 11a10.95 10.95 0 005.64-1.555l5.208 1.396-1.396-5.21z"/>
  </mask>
  <path d="M21.452 17.63l-1.546-.922a1.8 1.8 0 00-.193 1.388l1.739-.465zm-3.811 3.816l.466-1.74a1.8 1.8 0 00-1.39.195l.924 1.544zm5.207 1.395l-.466 1.738a1.8 1.8 0 002.204-2.204l-1.738.466zM21.2 12a9.149 9.149 0 01-1.294 4.708l3.091 1.845A12.749 12.749 0 0024.8 12h-3.6zM12 2.8a9.2 9.2 0 019.2 9.2h3.6C24.8 4.93 19.07-.8 12-.8v3.6zM2.8 12A9.2 9.2 0 0112 2.8V-.8C4.93-.8-.8 4.93-.8 12h3.6zm9.2 9.2A9.2 9.2 0 012.8 12H-.8c0 7.07 5.73 12.8 12.8 12.8v-3.6zm4.716-1.299A9.149 9.149 0 0112 21.2v3.6c2.396 0 4.644-.66 6.565-1.81l-1.849-3.089zm.459 3.283l5.207 1.395.932-3.477-5.207-1.395-.932 3.477zm7.412-.81l-1.397-5.21-3.477.932 1.396 5.21 3.477-.931z" fill="#000" mask="url(#DfugGhYIHPa)"/>
</svg>
